<?xml version="1.0" encoding="utf-8"?>
<!-- Generator: Adobe Illustrator 24.2.0, SVG Export Plug-In . SVG Version: 6.00 Build 0)  -->
<svg version="1.1" id="Layer_1" xmlns="http://www.w3.org/2000/svg" xmlns:xlink="http://www.w3.org/1999/xlink" x="0px" y="0px"
	 viewBox="0 0 54.6 22.6" style="enable-background:new 0 0 54.6 22.6;" xml:space="preserve">
<path d="M20.1,0.7c-0.4,0-0.8,0.2-1.1,0.5c-0.3,0.3-0.5,0.7-0.5,1.1V17c0,0.9-0.2,1.7-0.5,2.4c-0.4,0.7-0.8,1.3-1.5,1.9
	c-0.6,0.5-1.3,0.9-2.1,1.1s-1.6,0.3-2.5,0.2v-0.2c0.7-0.3,1.2-0.7,1.7-1.3c0.4-0.6,0.7-1.2,0.9-2c0.2-0.7,0.3-1.5,0.3-2.2V2.3
	c0-0.4-0.2-0.8-0.5-1.1s-0.7-0.5-1.1-0.5h-0.3V0.5h2l0,0h3.5h0.1h1.9v0.2H20.1z M9.5,8.9L4.8,5.8c-0.5-0.3-0.9-0.6-1.2-1
	S3.1,4,3.1,3.5c0-0.7,0.3-1.2,0.9-1.7s1.3-0.7,2.3-0.7s1.9,0.3,2.5,0.8s0.9,1.2,0.9,2h0.2l0.3-3.3l0,0V0.3H8.7c-0.2,0-0.3,0-0.5-0.1
	c-0.5-0.1-1-0.1-1.5-0.1s-0.9,0-1.2,0c-1,0-1.9,0.2-2.7,0.5C2.1,1,1.5,1.5,1.1,2.2S0.4,3.6,0.3,4.4C0.2,5.3,0.4,6.2,0.8,6.9
	c0.4,0.8,1,1.4,1.9,1.9l4.2,2.9c0.7,0.4,1.2,0.8,1.5,1.2c0.3,0.4,0.5,0.8,0.5,1.3c0,0.8-0.3,1.4-0.9,1.9c-0.6,0.5-1.4,0.8-2.5,0.8
	c-1,0-1.8-0.2-2.5-0.6c-0.7-0.4-1.3-1-1.6-1.7c-0.4-0.7-0.5-1.5-0.5-2.3H0.7c-0.2,0.3-0.4,0.8-0.5,1.3S0,14.6,0,15.1s0,0.9,0.2,1.3
	c0.3,0.3,0.7,0.6,1.3,0.8c0.5,0.2,1.1,0.4,1.8,0.5s1.4,0.2,2.1,0.2c2,0,3.5-0.4,4.7-1.3c1.1-0.9,1.8-2.1,1.8-3.7
	c0-0.9-0.1-1.7-0.5-2.4C10.8,9.8,10.3,9.3,9.5,8.9z M38.5,17.4h0.2v0.2h-7.8v-0.2h0.2c0.3,0,0.6-0.1,0.9-0.4
	c0.2-0.3,0.3-0.7,0.1-1.1l0,0l-1.2-3h-5.8l-1.3,3c-0.1,0.3-0.1,0.6-0.1,0.8c0.1,0.2,0.2,0.4,0.4,0.5c0.2,0.1,0.4,0.2,0.6,0.2h0.2
	v0.2h-5.3v-0.2h0.3c0.4,0,0.8-0.1,1.2-0.4c0.4-0.2,0.7-0.6,0.9-1l5.7-12.8c0-0.1,0.1-0.3,0.3-0.6c0.1-0.3,0.3-0.6,0.4-0.9
	s0.3-0.7,0.4-1c0-0.3,0.1-0.5,0.1-0.7h0.2l7.4,16.1c0.3,0.5,0.5,0.8,0.9,1C37.7,17.3,38.1,17.4,38.5,17.4z M30.4,11.8l-2.4-6l-2.5,6
	H30.4z M54.4,10.5h-0.2c-0.3,1.6-0.7,2.9-1.2,3.8s-1.2,1.6-2.1,2c-0.9,0.4-1.9,0.6-3.2,0.6c-1.2,0-2.3-0.4-3.2-1
	c-0.9-0.7-1.6-1.6-2.1-2.7c-0.5-1.2-0.7-2.6-0.7-4.2s0.3-3,0.8-4.2s1.2-2.1,2.2-2.7c0.9-0.6,2.1-1,3.4-1c1.3,0,2.5,0.3,3.5,1
	s1.7,1.9,2.2,3.5H54V1.4c-0.7-0.4-1.6-0.7-2.6-1S49.2,0,47.9,0c-2.1,0-3.9,0.4-5.4,1.1S39.9,2.8,39,4.2c-0.8,1.3-1.2,2.9-1.2,4.8
	s0.4,3.5,1.2,4.8s2,2.3,3.5,3.1c1.5,0.7,3.2,1.1,5.2,1.1c1.2,0,2.3-0.2,3.2-0.5s1.7-0.7,2.3-1.2c0.6-0.5,1.1-1,1.4-1.6L54.4,10.5z"
	/>
</svg>
